<svg xmlns="http://www.w3.org/2000/svg" viewBox="0 0 126 40"><defs><style>.a{fill:#f1f2f2;}</style></defs><title>fajar</title><path class="a" d="M15.13,35A3.13,3.13,0,0,1,14,32.53a3.57,3.57,0,0,1,.7-2.27,5,5,0,0,1,1.82-1.42,23.68,23.68,0,0,1,3-1.1L23.37,9.46A6.76,6.76,0,0,1,25.62,5.2,5.9,5.9,0,0,1,29.19,4a3.93,3.93,0,0,1,2.64,1A3.13,3.13,0,0,1,33,7.47a8,8,0,0,1-.1,1.31h-1.5q.06-.7.06-.86a1,1,0,0,0-.35-.8,1.33,1.33,0,0,0-.86-.29,1.94,1.94,0,0,0-1.31.59,3.72,3.72,0,0,0-.93,2L27.43,12h2.34l-.22,1.28H27.18L23.5,30.54a6.86,6.86,0,0,1-2.21,4.27A5.75,5.75,0,0,1,17.77,36,3.93,3.93,0,0,1,15.13,35Zm3.73-4.37.42-1.86a8.33,8.33,0,0,0-2.61,1.33,2.43,2.43,0,0,0-.91,2,1,1,0,0,0,.38.72,1.32,1.32,0,0,0,.9.34Q18.31,33.14,18.86,30.64Z"/><path class="a" d="M30.15,26.93A5.42,5.42,0,0,1,28.94,23a14.62,14.62,0,0,1,.94-5,11.45,11.45,0,0,1,2.82-4.42,6.2,6.2,0,0,1,4.46-1.81,3.43,3.43,0,0,1,2,.45,1.38,1.38,0,0,1,.64,1.18v.22L40.1,12h4.61l-2.3,10.88a4,4,0,0,0-.13,1q0,1.38,1.31,1.38a1.93,1.93,0,0,0,1.55-.83,6.26,6.26,0,0,0,1-2.18h1.34a9.27,9.27,0,0,1-2.93,4.69,6,6,0,0,1-3.5,1.23,3.06,3.06,0,0,1-2.16-.75,3.37,3.37,0,0,1-1-2.19,9,9,0,0,1-2.06,2.13,4.51,4.51,0,0,1-2.7.82A4.07,4.07,0,0,1,30.15,26.93Zm6.7-2.61a4,4,0,0,0,1.07-2.06L39.46,15a1.3,1.3,0,0,0-.32-.82,1.19,1.19,0,0,0-1-.4,2.85,2.85,0,0,0-2.3,1.49,11.77,11.77,0,0,0-1.6,3.58,14.18,14.18,0,0,0-.58,3.7,3,3,0,0,0,.46,2,1.57,1.57,0,0,0,1.14.45A2.31,2.31,0,0,0,36.86,24.32Z"/><path class="a" d="M40.9,35.18a2.75,2.75,0,0,1-1-2.3q0-3.11,5.25-4.77L48.55,12h4.61L50,26.83a5.65,5.65,0,0,0,2.46-1.54,8.22,8.22,0,0,0,1.57-3h1.34A9.06,9.06,0,0,1,53,26.43a7.85,7.85,0,0,1-3.33,1.81l-.48,2.3A6.85,6.85,0,0,1,47,34.82,5.79,5.79,0,0,1,43.46,36,4,4,0,0,1,40.9,35.18Zm2.88-2.43a5.82,5.82,0,0,0,.8-2.11l.19-.93q-3.14,1.15-3.14,2.72a1.07,1.07,0,0,0,.29.74,1,1,0,0,0,.8.32A1.38,1.38,0,0,0,43.78,32.75ZM49.64,9.49A2.44,2.44,0,0,1,48.9,7.7a2.49,2.49,0,0,1,.74-1.81,2.41,2.41,0,0,1,1.79-.75A2.57,2.57,0,0,1,54,7.7a2.41,2.41,0,0,1-.75,1.79,2.49,2.49,0,0,1-1.81.74A2.44,2.44,0,0,1,49.64,9.49Z"/><path class="a" d="M55,26.93A5.42,5.42,0,0,1,53.77,23a14.63,14.63,0,0,1,.94-5,11.45,11.45,0,0,1,2.82-4.42A6.21,6.21,0,0,1,62,11.82a3.43,3.43,0,0,1,2,.45,1.38,1.38,0,0,1,.64,1.18v.22l.35-1.7h4.61l-2.3,10.88a4,4,0,0,0-.13,1q0,1.38,1.31,1.38A1.93,1.93,0,0,0,70,24.43a6.28,6.28,0,0,0,1-2.18h1.34a9.27,9.27,0,0,1-2.93,4.69,6,6,0,0,1-3.5,1.23,3.06,3.06,0,0,1-2.16-.75,3.37,3.37,0,0,1-1-2.19,9,9,0,0,1-2.06,2.13,4.51,4.51,0,0,1-2.7.82A4.07,4.07,0,0,1,55,26.93Zm6.7-2.61a4,4,0,0,0,1.07-2.06L64.3,15a1.3,1.3,0,0,0-.32-.82,1.19,1.19,0,0,0-1-.4,2.85,2.85,0,0,0-2.3,1.49,11.78,11.78,0,0,0-1.6,3.58,14.14,14.14,0,0,0-.58,3.7,3,3,0,0,0,.46,2,1.57,1.57,0,0,0,1.14.45A2.31,2.31,0,0,0,61.69,24.32Z"/><path class="a" d="M73.35,12H78l-.42,2a12.78,12.78,0,0,1,2-1.47,3.73,3.73,0,0,1,1.9-.51,2,2,0,0,1,1.62.7,2.55,2.55,0,0,1,.59,1.7A2.42,2.42,0,0,1,83,16a2.12,2.12,0,0,1-1.7.7,1.1,1.1,0,0,1-.94-.34,2.56,2.56,0,0,1-.37-1,2.94,2.94,0,0,0-.19-.61.36.36,0,0,0-.35-.19,2.21,2.21,0,0,0-1.14.27,7.71,7.71,0,0,0-1.2.94L74.57,28H70Z"/><path class="a" d="M92.06,27.14a3.77,3.77,0,0,1-.91-2.58A8.3,8.3,0,0,1,91.3,23q.16-.85.34-1.65t.24-1q.26-1.12.48-2.21a9.21,9.21,0,0,0,.22-1.76q0-1.63-1.15-1.63a1.85,1.85,0,0,0-1.47.82,6.28,6.28,0,0,0-1,2.13L86.76,28H82.15l3.39-16h4.61l-.35,1.66a4.88,4.88,0,0,1,3.74-1.79,3.65,3.65,0,0,1,2.59.9,3.55,3.55,0,0,1,1,2.72,10.73,10.73,0,0,1-.22,2.06q-.22,1.14-.64,2.77-.26,1-.46,1.94a7.3,7.3,0,0,0-.21,1.49,1.52,1.52,0,0,0,.29,1,1.22,1.22,0,0,0,1,.35,1.9,1.9,0,0,0,1.54-.69,8.08,8.08,0,0,0,1.15-2.13h1.34Q99.69,25.78,98.13,27a5.2,5.2,0,0,1-3.22,1.2A3.62,3.62,0,0,1,92.06,27.14Z"/><path class="a" d="M94.17,35A3.13,3.13,0,0,1,93,32.53a3.57,3.57,0,0,1,.7-2.27,5,5,0,0,1,1.82-1.42,23.73,23.73,0,0,1,3-1.1l3.87-18.27a6.77,6.77,0,0,1,2.26-4.26A5.9,5.9,0,0,1,108.23,4a3.93,3.93,0,0,1,2.64,1A3.13,3.13,0,0,1,112,7.47a8,8,0,0,1-.1,1.31h-1.5q.06-.7.06-.86a1,1,0,0,0-.35-.8,1.32,1.32,0,0,0-.86-.29,1.94,1.94,0,0,0-1.31.59,3.72,3.72,0,0,0-.93,2L106.47,12h2.34l-.22,1.28h-2.37l-3.68,17.28a6.85,6.85,0,0,1-2.21,4.27A5.75,5.75,0,0,1,96.81,36,3.93,3.93,0,0,1,94.17,35Zm3.73-4.37.42-1.86a8.34,8.34,0,0,0-2.61,1.33,2.43,2.43,0,0,0-.91,2,1,1,0,0,0,.38.72,1.32,1.32,0,0,0,.9.34Q97.35,33.14,97.9,30.64Z"/></svg>