<svg xmlns="http://www.w3.org/2000/svg" viewBox="0 0 40 40"><defs><style>.a,.c{fill:#fff;}.a,.b{opacity:0.32;isolation:isolate;}</style></defs><title>fajar-mini</title><circle class="a" cx="20" cy="20" r="20"/><g class="b"><rect class="c" x="23.95" y="5.26" width="3.3" height="18.29" rx="1" ry="1" transform="translate(53.88 6.49) rotate(135)"/><path class="c" d="M26.78,26.15l-6.37,6.37a1,1,0,0,1-1.42,0L17.52,31a1,1,0,0,1,0-1.42L21,26.1a1,1,0,0,0,0-1.42l-2.5-2.5a1,1,0,0,0-1.42,0L13.6,25.71a1,1,0,0,1-1.42,0l-1.47-1.47a1,1,0,0,1,0-1.42l6.37-6.37a1,1,0,0,1,1.42,0l8.29,8.29A1,1,0,0,1,26.78,26.15Z"/><path class="c" d="M10.15,22.25l7-7a1,1,0,0,1,1.42,0l8.85,8.85a1,1,0,0,0,1.42,0l.86-.86a1,1,0,0,0,0-1.42L18.16,10.33a1,1,0,0,0-1.42,0L7.48,19.59a1,1,0,0,0,0,1.42l1.25,1.25A1,1,0,0,0,10.15,22.25Z"/></g></svg>